<?xml version="1.0" encoding="utf-8" ?>
<svg xmlns="http://www.w3.org/2000/svg" xmlns:xlink="http://www.w3.org/1999/xlink" width="1024" height="1024">
	<path fill="#150F16" d="M320.775 624.643C321.4 625.408 322.033 626.283 322.703 627.004C323.619 627.992 324.942 628.39 326.256 628.357C327.143 628.334 326.883 628.37 327.551 627.888C328.011 627.556 328.487 627.247 328.968 626.947L329.189 627.104C328.176 631.292 326.637 635.473 325.429 639.624C323.524 634.715 321.732 629.836 320.775 624.643Z"/>
	<path fill="#F6F9FA" d="M69.3706 686.868C72.7711 681.462 87.1302 672.758 92.9177 669.138C93.5366 671.669 90.015 676.501 88.6569 678.743C86.0955 682.972 83.0341 688.356 79.0702 691.417C75.8746 689.813 72.6304 688.336 69.3706 686.868Z"/>
	<path fill="#B8D3E8" d="M122.596 675.153C129.047 672.925 136.673 667.659 142.746 664.279Q168.583 649.912 194.104 634.99C201.742 630.48 209.246 624.681 217.217 620.862C218.564 620.217 218.977 620.236 220.415 620.402C224.611 624.966 234.754 630.456 240.289 634.143C259.097 646.672 278.329 658.841 296.78 671.871C302.665 668.803 308.586 665.775 314.389 662.554C318.319 660.373 322.202 657.862 326.295 656.012C335.318 658.12 343.724 662.242 352.681 664.649C355.39 671.012 358.33 676.988 362.153 682.777C362.601 677.658 363.528 672.562 363.941 667.464C370.608 669.586 377.621 671.586 384.615 672.233C385.309 681.221 385.276 690.226 386.137 699.209C383.318 701.607 380.538 704.12 377.559 706.315C364.57 703.938 351.546 701.882 338.649 699.011C318.448 694.513 298.009 688.166 278.831 680.34C251.007 697.218 219.512 705.954 188.211 714.07C174.944 717.511 160.871 720.018 148.393 725.841C146.258 725.524 131.563 716.963 128.307 715.33C112.013 707.156 95.1994 699.874 79.0702 691.417C83.0341 688.356 86.0955 682.972 88.6569 678.743C90.015 676.501 93.5366 671.669 92.9177 669.138C94.6852 667.632 96.7429 666.358 98.743 665.18C105.373 668.496 115.398 674.389 122.596 675.153Z"/>
	<path fill="#F6F9FA" d="M122.596 675.153C129.047 672.925 136.673 667.659 142.746 664.279Q168.583 649.912 194.104 634.99C201.742 630.48 209.246 624.681 217.217 620.862C218.564 620.217 218.977 620.236 220.415 620.402C219.678 621.214 219.035 621.904 218.754 622.994C217.402 628.24 217.366 634.389 216.55 639.803C214.158 655.676 210.905 671.745 209.961 687.77Q196.58 688.148 183.211 688.813C177.339 689.082 170.741 689.928 164.93 689.064C156.683 687.838 147.737 683.998 139.783 681.313C134.374 679.488 127.523 677.939 122.596 675.153Z"/>
	<path fill="#9CC6E4" d="M278.831 680.34C298.009 688.166 318.448 694.513 338.649 699.011C351.546 701.882 364.57 703.938 377.559 706.315C354.45 725.334 332.43 745.822 309.645 765.253C304.891 769.306 294.617 779.258 289.522 781.77C288.417 785.96 254.992 811.886 248.713 817.599C240.773 813.179 233.185 808.004 225.281 803.478C219.542 800.797 213.935 797.013 208.396 793.859L170.446 772.118C136.779 752.738 102.813 733.73 69.4614 713.822C69.1302 704.863 69.5344 695.839 69.3706 686.868C72.6304 688.336 75.8746 689.813 79.0702 691.417C95.1994 699.874 112.013 707.156 128.307 715.33C131.563 716.963 146.258 725.524 148.393 725.841C160.871 720.018 174.944 717.511 188.211 714.07C219.512 705.954 251.007 697.218 278.831 680.34Z"/>
	<path fill="#4E8298" d="M289.522 781.77C288.417 785.96 254.992 811.886 248.713 817.599C240.773 813.179 233.185 808.004 225.281 803.478C233.268 801.158 241.084 797.802 248.966 795.104C261.058 790.965 273.289 787.251 285.313 782.914L289.522 781.77Z"/>
	<path fill="#4E8298" d="M706.976 475.279C723.634 459.471 739.57 442.583 755.426 425.96C778.495 401.775 801.558 377.431 824.991 353.605C830.676 347.826 835.574 343.89 844.057 343.826C847.391 344.875 851.051 345.821 853.711 348.209C860.719 354.497 866.696 362.94 872.689 370.206C886.779 387.289 900.356 404.75 914.32 421.926Q927.295 437.736 940.436 453.409C945.045 458.891 950.41 464.393 954.368 470.344C955.034 503.561 954.556 536.893 954.543 570.121C954.531 599.999 955.035 629.983 954.487 659.849C947.076 650.05 938.021 641.136 929.499 632.29Q909.562 611.915 888.089 593.166Q866.616 574.417 843.739 557.41C825.541 544.084 806.639 531.941 787.718 519.69C780.778 516.115 774.089 511.516 767.305 507.596C747.984 496.43 727.278 484.412 706.976 475.279Z"/>
	<path fill="#73ABBB" d="M706.976 475.279C723.634 459.471 739.57 442.583 755.426 425.96C778.495 401.775 801.558 377.431 824.991 353.605C830.676 347.826 835.574 343.89 844.057 343.826C843.462 350.278 841.43 356.742 839.793 362.999Q835.702 378.732 831.23 394.362C829.328 401.177 828.133 408.738 825.078 415.114C820.835 423.965 811.209 436.039 805.42 444.389C797.604 455.664 790.204 467.929 781.55 478.548C792.456 478.847 803.383 478.598 814.291 478.485C805.901 492.571 796.741 506.017 787.718 519.69C780.778 516.115 774.089 511.516 767.305 507.596C747.984 496.43 727.278 484.412 706.976 475.279Z"/>
	<path fill="#365C75" d="M69.4614 713.822C102.813 733.73 136.779 752.738 170.446 772.118L208.396 793.859C213.935 797.013 219.542 800.797 225.281 803.478C233.185 808.004 240.773 813.179 248.713 817.599L320.708 861.088C330.866 867.196 341.34 872.847 351.341 879.21C364.536 886.518 377.11 895.103 390.185 902.679L449.426 936.407C455.691 939.951 473.636 948.775 477.7 952.982L349.265 952.788L305.657 952.763C293.724 952.782 281.727 953.009 269.824 952.016Q267.44 951.815 265.062 951.561Q262.683 951.308 260.31 951.004Q257.938 950.699 255.572 950.343Q253.206 949.987 250.849 949.58Q248.492 949.173 246.144 948.715Q243.796 948.257 241.459 947.748Q239.121 947.239 236.796 946.68Q234.47 946.12 232.157 945.51Q229.843 944.901 227.544 944.241Q225.245 943.581 222.96 942.872Q220.676 942.163 218.407 941.404Q216.138 940.645 213.887 939.838Q211.635 939.03 209.401 938.174Q207.168 937.317 204.953 936.413Q202.738 935.508 200.544 934.556Q198.35 933.604 196.176 932.604Q194.003 931.605 191.852 930.558Q189.701 929.512 187.573 928.419Q185.445 927.326 183.341 926.188Q181.237 925.049 179.159 923.865Q177.08 922.681 175.028 921.452Q172.975 920.223 170.95 918.95Q168.925 917.677 166.927 916.361Q164.93 915.044 162.962 913.685Q160.993 912.325 159.055 910.923Q157.117 909.522 155.209 908.078Q153.302 906.634 151.426 905.15Q149.55 903.665 147.707 902.141Q145.864 900.616 144.054 899.051Q142.244 897.487 140.469 895.884Q138.694 894.28 136.953 892.639Q135.213 890.998 133.509 889.319Q131.974 887.814 130.47 886.279Q128.967 884.743 127.494 883.177Q126.022 881.611 124.582 880.016Q123.142 878.42 121.735 876.795Q120.328 875.171 118.954 873.518Q117.58 871.865 116.24 870.184Q114.9 868.504 113.595 866.796Q112.289 865.089 111.019 863.355Q109.749 861.621 108.514 859.862Q107.279 858.103 106.08 856.319Q104.882 854.534 103.72 852.726Q102.558 850.918 101.433 849.087Q100.308 847.255 99.2202 845.401Q98.1327 843.548 97.0832 841.672Q96.0338 839.796 95.0227 837.9Q94.0117 836.003 93.0395 834.086Q92.0672 832.169 91.1343 830.233Q90.2013 828.296 89.308 826.342Q88.4147 824.387 87.5613 822.414Q86.708 820.441 85.8951 818.452Q85.0821 816.462 84.3098 814.456Q83.5376 812.45 82.8063 810.429Q82.0751 808.408 81.3851 806.373Q80.6952 804.337 80.0469 802.288Q79.3986 800.239 78.7921 798.177Q78.1857 796.115 77.6214 794.041Q77.0571 791.967 76.5351 789.882Q76.0131 787.797 75.5338 785.702Q75.0544 783.606 74.6178 781.502Q74.1812 779.397 73.7875 777.284Q73.3939 775.171 73.0434 773.051Q72.6928 770.93 72.3856 768.803C69.7913 750.529 69.5469 732.242 69.4614 713.822Z"/>
	<path fill="#06122A" d="M351.4 258.56C355.503 260.704 358.741 264.074 362.106 267.195C365.219 265.358 367.625 263.101 370.215 260.611C380.697 265.524 391.506 269.251 402.165 273.702C434.64 287.261 451.523 303.897 469.674 333.309C493.054 318.234 517.904 313.447 544.946 309.15C540.356 314.007 534.855 317.929 530.266 322.82Q542.968 321.902 555.695 321.459Q552.967 325.349 549.861 328.946Q546.755 332.542 543.303 335.808C557.183 337.26 570.981 340.699 584.829 342.688C581.5 348.367 576.866 353.539 572.76 358.671C584.523 361.685 596.368 364.307 608.115 367.416C601.012 370.996 592.891 373.216 585.333 375.652C595.804 383.06 607.464 389.415 618.6 395.78C609.382 396.696 600.114 396.771 590.891 397.633C594.352 401.32 598.996 403.927 603.175 406.707C610.12 411.328 616.227 415.812 621.851 422.026C612.998 421.447 604.059 419.537 595.211 418.577C600.142 423.94 602.661 429.638 605.468 436.239C631.735 444.97 657.379 453.991 682.909 464.75C690.958 468.142 699.158 471.38 706.976 475.279C727.278 484.412 747.984 496.43 767.305 507.596C774.089 511.516 780.778 516.115 787.718 519.69C806.639 531.941 825.541 544.084 843.739 557.41Q866.616 574.417 888.089 593.166Q909.562 611.915 929.499 632.29C938.021 641.136 947.076 650.05 954.487 659.849C954.779 679.188 955.291 698.818 954.525 718.143C955.01 733.335 955.096 748.502 953.061 763.586C952.57 766.661 952.111 769.744 951.585 772.813L949.837 781.542L948.753 786.71L946.831 794.36Q944.416 803.023 941.147 811.402C938.595 817.986 936.04 824.563 932.844 830.87C931.255 833.959 929.757 837.177 927.96 840.147C926.245 842.98 924.627 846.021 922.691 848.699C921.531 850.616 920.423 852.604 919.103 854.416L913.975 861.831C909.128 868.477 904.031 874.68 898.44 880.712C895.129 884.217 891.888 887.852 888.358 891.137C882.516 896.519 876.696 901.963 870.379 906.793C866.219 910.033 861.937 912.968 857.543 915.873C851.343 920.021 844.986 924.158 838.316 927.515C833.561 930.003 828.753 932.19 823.827 934.31C816.403 937.484 808.858 940.165 801.264 942.894C795.596 944.563 789.856 946.437 784.055 947.562C776.549 949.303 767.973 951.378 760.27 951.6C753.263 952.461 746.213 952.734 739.165 953.042C729.819 953.578 720.472 953.179 711.122 953.354C703.7 953.196 696.233 953.41 688.808 953.45Q674.733 953.509 660.659 953.41C648.86 953.182 637.063 953.379 625.263 953.418Q608.104 953.451 590.945 953.276C580.467 953.445 569.926 953.041 559.437 953.03L477.7 952.982C473.636 948.775 455.691 939.951 449.426 936.407L390.185 902.679C377.11 895.103 364.536 886.518 351.341 879.21C341.34 872.847 330.866 867.196 320.708 861.088L248.713 817.599C254.992 811.886 288.417 785.96 289.522 781.77C294.617 779.258 304.891 769.306 309.645 765.253C332.43 745.822 354.45 725.334 377.559 706.315C380.538 704.12 383.318 701.607 386.137 699.209C385.276 690.226 385.309 681.221 384.615 672.233C377.621 671.586 370.608 669.586 363.941 667.464C363.528 672.562 362.601 677.658 362.153 682.777C358.33 676.988 355.39 671.012 352.681 664.649C349.508 654.8 347.436 643.796 347.323 633.423C344.506 640.391 342.044 647.454 340.594 654.841C334.358 643.85 332.111 632.007 331.551 619.474C330.884 622.086 330.131 624.576 329.189 627.104L328.968 626.947C328.487 627.247 328.011 627.556 327.551 627.888C326.883 628.37 327.143 628.334 326.256 628.357C324.942 628.39 323.619 627.992 322.703 627.004C322.033 626.283 321.4 625.408 320.775 624.643C318.024 615.042 318.061 604.322 318.496 594.397Q311.837 606.03 304.501 617.249C304.015 590.711 309.023 554.438 317.04 529.168C319.864 520.267 323.741 511.76 327.314 503.144C306.583 490.172 305.219 467.263 308.843 445.341C309.844 439.289 312.147 432.688 312.085 426.575C312.067 424.778 311.588 423.262 310.61 421.759C308.912 419.149 306.335 417.194 303.852 415.375C290.407 405.524 271.63 401.719 255.201 402.023C247.887 402.159 240.781 403.739 233.569 404.793C220.221 406.744 206.12 406.642 192.897 403.855C189.903 412.502 189.787 419.855 190.043 428.895C183.452 422.419 178.704 413.256 176.354 404.368C172.441 389.573 174.352 372.467 182.09 359.186C193.78 339.121 215.432 328.765 237.017 323.074C238.457 321.018 239.887 318.879 241.619 317.057C248.803 309.498 258.392 307.304 268.421 306.85C276.853 295.488 297.652 284.33 308.598 272.58L312.946 277.137C315.146 275.188 317.612 270.328 320.097 269.512L321.811 270.825C325.645 269.866 330.709 262.997 333.762 260.199C336.237 262.963 338.403 265.718 340.415 268.839C344.751 265.757 348.291 262.929 351.4 258.56ZM371.404 648.894C367.983 654.737 365.719 660.951 363.941 667.464C370.608 669.586 377.621 671.586 384.615 672.233C384.344 665.906 384.723 659.567 385.096 653.253C380.52 657.018 376.738 661.473 373.056 666.092C372.356 660.403 371.402 654.632 371.404 648.894Z"/>
	<path fill="#F5F2F4" d="M513.33 322.623Q518.826 321.225 524.352 319.952C521.183 323.528 517.849 326.794 514.363 330.05L513.812 330.093C512.945 327.793 513.282 325.045 513.33 322.623Z"/>
	<path fill="#2C405D" d="M903.205 852.01C908.557 852.537 913.903 852.984 919.103 854.416L913.975 861.831Q908.667 856.837 903.205 852.01Z"/>
	<path fill="#2C405D" d="M857.278 856.36C863.732 857.584 870.128 857.985 876.688 858.047C884.179 865.396 891.244 873.083 898.44 880.712C895.129 884.217 891.888 887.852 888.358 891.137C884.779 886.811 880.323 882.901 876.518 878.716C869.914 871.452 863.64 863.84 857.278 856.36Z"/>
	<path fill="#4E8298" d="M233.073 378.35C235.265 379.748 236.157 380.925 236.662 383.49C237.586 388.184 235.218 393.436 236.358 397.842C222.483 400.369 208.545 402.564 194.878 397.825C201.081 390.152 207.572 388.466 216.527 385.639C222.773 384.529 227.578 381.307 233.073 378.35Z"/>
	<path fill="#F6F9FA" d="M329.112 307.586C332.433 307.303 335.651 307.202 338.806 308.444C342.824 310.026 346.09 313.135 347.645 317.192C349.015 320.768 348.953 324.854 347.243 328.306C345.213 332.405 341.479 334.62 337.276 335.98C334.238 336.188 331.353 336.349 328.442 335.269Q327.674 334.989 326.939 334.634Q326.203 334.279 325.507 333.851Q324.81 333.424 324.161 332.928Q323.511 332.433 322.914 331.875Q322.318 331.317 321.78 330.702Q321.242 330.086 320.769 329.42Q320.296 328.754 319.893 328.044Q319.489 327.333 319.159 326.586Q318.881 325.958 318.67 325.303Q318.46 324.649 318.321 323.976Q318.182 323.303 318.115 322.619Q318.047 321.935 318.053 321.248Q318.059 320.561 318.138 319.878Q318.217 319.195 318.368 318.525Q318.519 317.855 318.74 317.204Q318.962 316.553 319.251 315.93C321.199 311.666 324.902 309.257 329.112 307.586Z"/>
	<path fill="#06122A" d="M333.496 314.453C334.358 314.358 335.2 314.26 336.068 314.333C337.956 314.493 339.682 315.285 340.897 316.768Q341.095 317.01 341.265 317.272Q341.436 317.533 341.578 317.812Q341.72 318.09 341.832 318.382Q341.943 318.674 342.023 318.976Q342.103 319.278 342.151 319.587Q342.198 319.896 342.212 320.208Q342.227 320.52 342.208 320.832Q342.189 321.144 342.137 321.452C341.689 324.224 339.935 325.647 337.716 327.109C336.868 327.256 336.048 327.405 335.182 327.355C333.296 327.247 331.513 326.437 330.342 324.925C329.197 323.447 328.903 321.537 329.272 319.733C329.797 317.166 331.412 315.838 333.496 314.453Z"/>
	<path fill="#2C405D" d="M810.003 860.138C816.113 861.115 822.145 861.777 828.336 861.912C842.416 876.759 856.021 892.236 870.379 906.793C866.219 910.033 861.937 912.968 857.543 915.873C855.168 911.024 841.032 896.993 836.72 892.043C827.616 881.595 818.808 870.84 810.003 860.138Z"/>
	<path fill="#4E8298" d="M184.931 411.7C180.866 402.422 179.458 393.268 180.682 383.179C182.483 368.338 189.222 356.593 200.972 347.487C203.371 348.208 204.23 349.035 205.398 351.232C210.511 360.844 213.567 373.204 216.058 383.742C210.343 383.041 205.072 383.685 200.05 386.671C190.823 392.158 187.354 401.857 184.931 411.7Z"/>
	<path fill="#2C405D" d="M761.085 863.214C767.285 864.162 773.49 864.688 779.745 865.051C792.187 877.065 804.032 889.948 815.576 902.831C823.007 911.124 830.163 919.924 838.316 927.515C833.561 930.003 828.753 932.19 823.827 934.31C821.861 931.761 819.358 929.356 817.226 926.921C810.602 919.36 803.831 911.965 797.057 904.54C784.781 891.085 772.824 877.143 761.085 863.214Z"/>
	<path fill="#2C405D" d="M713.97 866.438C720.92 867.94 727.941 868.83 734.993 869.678C740.588 874.937 745.499 881.279 750.75 886.927C767.868 905.337 784.388 924.264 801.264 942.894C795.596 944.563 789.856 946.437 784.055 947.562C783.803 946.403 783.155 945.439 782.431 944.518C776.277 936.687 769.013 929.331 762.345 921.922C745.969 903.725 729.113 885.67 713.97 866.438Z"/>
	<path fill="#2C405D" d="M622.267 875.127C629.756 876.437 637.2 877.472 644.703 878.61C661.045 896.792 677.661 914.769 693.817 933.108C699.419 939.467 706.689 946.19 711.122 953.354C703.7 953.196 696.233 953.41 688.808 953.45C685.656 947.512 680.176 942.161 675.78 937.062Q662.602 921.821 649.153 906.82C639.961 896.468 631.192 885.713 622.267 875.127Z"/>
	<path fill="#2C405D" d="M668.408 871.583C675.155 872.699 681.707 873.679 688.56 873.769C713.569 898.624 736.251 925.825 760.27 951.6C753.263 952.461 746.213 952.734 739.165 953.042C732.256 942.832 720.458 930.585 712.057 921.214Q689.952 896.645 668.408 871.583Z"/>
	<path fill="#2C405D" d="M557.758 873.543C565.971 876.137 574.355 878.897 582.894 880.176C587.492 880.865 592.128 880.897 596.711 881.51C606.827 892.145 616.157 903.788 626.055 914.677C637.576 927.354 650.326 939.77 660.659 953.41C648.86 953.182 637.063 953.379 625.263 953.418C621.715 946.566 614.201 940.223 609.088 934.408C596.642 920.254 583.974 906.138 571.992 891.598C567.183 885.762 561.906 879.876 557.758 873.543Z"/>
	<path fill="#365C75" d="M242.214 327.357C243.683 324.923 245.343 322.786 247.499 320.916C254.942 314.461 262.159 313.512 271.551 314.159C279.069 319.591 288.103 324.681 296.972 327.424C297.433 329.115 298.227 329.657 299.546 330.669C312.328 348.683 324.99 356.246 343.145 367.775C341.239 373.013 339.349 378.245 333.999 380.904C325.227 385.263 285.838 385.448 274.341 385.764C269.367 385.901 263.249 385.355 258.471 386.529C256.201 389.795 254.265 392.225 250.757 394.277C246.086 395.891 241.181 396.795 236.358 397.842C235.218 393.436 237.586 388.184 236.662 383.49C236.157 380.925 235.265 379.748 233.073 378.35C227.578 381.307 222.773 384.529 216.527 385.639C216.823 385.167 217.195 384.789 217.567 384.376L216.058 383.742C213.567 373.204 210.511 360.844 205.398 351.232C204.23 349.035 203.371 348.208 200.972 347.487C214.986 337.497 223.204 333.75 239.973 329.396L240.726 328.501L242.214 327.357Z"/>
	<path fill="#2C405D" d="M279.93 335.923C281.083 335.344 283.025 335.165 284.3 335.434C284.488 335.474 284.655 335.582 284.833 335.655L283.984 335.805L284.582 336.001C280.919 338.198 277.066 339.999 273.397 342.157C268.952 344.77 261.272 351.949 256.367 352.194C253.12 352.731 250.283 352.998 247.004 352.495C248.851 351.739 250.508 350.977 252.549 351.041C253.785 351.08 254.424 351.047 255.579 350.604C255.794 349.794 256.031 349.198 256.427 348.445C256.56 348.191 256.703 347.941 256.841 347.69C256.854 348.674 256.984 349.595 257.137 350.566L257.606 350.521C260.655 347.9 263.76 344.701 267.097 342.484C269.693 340.759 278.623 338.006 279.93 335.923Z"/>
	<path fill="#150F16" d="M279.93 335.923C278.623 338.006 269.693 340.759 267.097 342.484C263.76 344.701 260.655 347.9 257.606 350.521L257.137 350.566C256.984 349.595 256.854 348.674 256.841 347.69C258.725 344.353 259.194 341.422 262.001 338.405L274.061 336.043L279.93 335.923Z"/>
	<path fill="#06122A" d="M255.259 367.081C264.202 365.183 272.835 362.34 281.858 360.737C273.58 364.138 264.529 365.723 256.391 369.345C248.664 372.197 240.484 374.783 233.073 378.35C227.578 381.307 222.773 384.529 216.527 385.639C216.823 385.167 217.195 384.789 217.567 384.376C222.683 383.192 227.707 378.784 232.325 376.172C239.238 372.264 247.507 368.825 255.259 367.081Z"/>
	<path fill="#B8D3E8" d="M242.214 327.357C243.683 324.923 245.343 322.786 247.499 320.916C254.942 314.461 262.159 313.512 271.551 314.159C269.738 314.918 267.82 315.425 266.033 316.216C257.896 319.816 253.09 327.516 248.197 334.512C248.75 330.572 249.116 326.751 249.196 322.772C247.011 324.3 244.942 325.871 242.904 327.593L242.214 327.357Z"/>
	<defs>
		<linearGradient id="gradient_0" gradientUnits="userSpaceOnUse" x1="237.66711" y1="340.79202" x2="270.35944" y2="344.80103">
			<stop offset="0" stop-color="#323C54"/>
			<stop offset="1" stop-color="#535E74"/>
		</linearGradient>
	</defs>
	<path fill="url(#gradient_0)" d="M239.973 329.396L240.726 328.501C240.961 333.014 240.345 339.719 244.056 342.933C244.999 343.75 246.246 344.473 247.532 344.423C249.766 344.335 251.402 342.1 252.563 340.453C253.945 338.494 255.184 335.66 257.703 335.142C261.462 334.37 270.953 333.964 274.061 336.043L262.001 338.405C259.194 341.422 258.725 344.353 256.841 347.69C256.703 347.941 256.56 348.191 256.427 348.445C256.031 349.198 255.794 349.794 255.579 350.604C254.424 351.047 253.785 351.08 252.549 351.041C250.508 350.977 248.851 351.739 247.004 352.495C243.408 350.626 240.366 348.295 238.858 344.377C237.345 340.449 237.247 335.425 239.009 331.576C239.34 330.853 239.654 330.125 239.973 329.396Z"/>
	<path fill="#F3AE7B" d="M256.391 369.345C259.25 374.946 260.408 380.359 258.471 386.529C256.201 389.795 254.265 392.225 250.757 394.277C246.086 395.891 241.181 396.795 236.358 397.842C235.218 393.436 237.586 388.184 236.662 383.49C236.157 380.925 235.265 379.748 233.073 378.35C240.484 374.783 248.664 372.197 256.391 369.345Z"/>
	<path fill="#F3AE7B" d="M239.973 329.396C239.654 330.125 239.34 330.853 239.009 331.576C237.247 335.425 237.345 340.449 238.858 344.377C240.366 348.295 243.408 350.626 247.004 352.495C250.283 352.998 253.12 352.731 256.367 352.194C255.809 357.175 255.453 362.074 255.259 367.081C247.507 368.825 239.238 372.264 232.325 376.172C227.707 378.784 222.683 383.192 217.567 384.376L216.058 383.742C213.567 373.204 210.511 360.844 205.398 351.232C204.23 349.035 203.371 348.208 200.972 347.487C214.986 337.497 223.204 333.75 239.973 329.396Z"/>
	<path fill="#365C75" d="M469.295 772.015C463.088 766.342 457.487 757.882 453.083 750.732C434.855 721.136 418.814 683.782 427.349 648.534C432.997 625.213 446.775 606.509 467.275 594.084C478.405 587.338 491.223 582.503 504.19 580.993C518.734 579.299 535.114 580.516 549.908 580.508Q597.183 580.263 644.454 580.877L732.281 581.179C753.119 581.357 775.134 580.078 795.545 585.07C795.357 585.173 795.173 585.283 794.981 585.379C792.189 586.78 763.939 585.833 758.261 586.11L609.707 593.498L554.062 596.153C535.747 597.084 516.213 596.259 498.86 602.877C476.566 611.378 461.068 626.583 452.273 648.83C439.135 682.058 452.806 719.671 462.705 752.015C464.482 757.82 468.502 766.523 469.295 772.015Z"/>
	<path fill="#4E8298" d="M435.793 829.259C446.585 850.551 468.145 885.4 487.103 899.892C484.312 891.448 481.598 883.145 480.019 874.369C492.558 891.097 507.733 907.09 525.337 918.555C522.174 911.74 518.459 905.205 515.302 898.407C530.022 909.022 543.47 921.001 558.632 931.129Q569.666 938.465 581.147 945.081C585.224 947.456 590.407 949.749 594.017 952.713L593.672 952.648L593.355 952.159L594.038 952.702C592.956 953.15 592.109 953.224 590.945 953.276C580.467 953.445 569.926 953.041 559.437 953.03L477.7 952.982C473.636 948.775 455.691 939.951 449.426 936.407L390.185 902.679C377.11 895.103 364.536 886.518 351.341 879.21Q379.545 863.037 407.442 846.341C416.757 840.855 427.28 835.874 435.793 829.259Z"/>
	<path fill="#73ABBB" d="M386.137 699.209C389.107 731.808 394.061 776.037 410.777 804.844C411.017 792.777 412.301 781.289 414.574 769.448C420.199 791.342 425.876 808.856 435.793 829.259C427.28 835.874 416.757 840.855 407.442 846.341Q379.545 863.037 351.341 879.21C341.34 872.847 330.866 867.196 320.708 861.088L248.713 817.599C254.992 811.886 288.417 785.96 289.522 781.77C294.617 779.258 304.891 769.306 309.645 765.253C332.43 745.822 354.45 725.334 377.559 706.315C380.538 704.12 383.318 701.607 386.137 699.209Z"/>
	<path fill="#E66669" d="M332.089 270.866C333.98 273.234 335.921 276.821 339.356 277.009C342.755 277.195 348.193 270.363 351.548 268.585C354.584 271.002 357.973 274.767 362.203 274.265C365.33 273.894 368.198 271.392 370.666 269.589C377.339 272.645 384.374 274.88 391.205 277.56C415.96 287.271 435.398 298.692 451.635 320.283C456.96 327.364 462.447 335.113 465.564 343.436C466.774 346.669 467.441 350.034 468.494 353.308C468.622 351.134 468.663 348.915 468.922 346.754C470.314 362.703 451.277 392.955 441.13 405.055L436.904 410.053C433.154 415.371 427.952 419.964 423.327 424.544C413.5 433.918 402.926 442.759 392.288 451.192C374.078 465.627 351.321 481.417 338.164 500.539C330.994 496.828 325.009 492.804 320.526 485.93C309.838 469.542 315.527 445.888 319.222 427.984C319.255 427.789 319.301 427.595 319.323 427.398C319.942 421.75 315.314 416.714 312.032 412.655C309.013 411.002 306.179 408.475 303.156 406.683C293.072 400.707 280.895 397.141 269.248 396.05C263.135 395.478 256.609 396.38 250.757 394.277C254.265 392.225 256.201 389.795 258.471 386.529C263.249 385.355 269.367 385.901 274.341 385.764C285.838 385.448 325.227 385.263 333.999 380.904C339.349 378.245 341.239 373.013 343.145 367.775C324.99 356.246 312.328 348.683 299.546 330.669C298.227 329.657 297.433 329.115 296.972 327.424C302.099 328.068 306.383 327.604 311.309 326.248C312.263 329.026 313.44 331.843 315.112 334.275C318.263 338.861 322.769 341.841 328.255 342.818C335.304 344.073 343.243 342.742 349.018 338.392C353.37 335.114 356.361 330.238 356.976 324.793C357.746 317.98 354.777 312.436 350.603 307.369C345.312 303.565 338.932 300.893 332.298 302.05C310.045 305.932 314.272 334.442 282.119 312.875C280.826 312.007 279.695 311.034 278.563 309.97C278.073 309.511 277.581 309.058 277.097 308.592C278.718 303.463 303.061 286.881 308.859 282.938L312.914 285.575C320.235 281.412 326.013 276.695 332.089 270.866Z"/>
	<path fill="#CA4B55" d="M350.603 307.369C353.365 307.112 354.966 307.905 357.049 309.703C361.592 313.625 363.692 320.93 363.887 326.783C364.111 333.505 361.59 341.217 356.919 346.142C352.491 350.809 346.245 352.675 339.944 352.681C330.76 352.691 322.793 348.434 316.514 341.955C313.671 339.022 311.376 335.637 308.598 332.693C305.589 331.839 302.656 331.072 299.546 330.669C298.227 329.657 297.433 329.115 296.972 327.424C302.099 328.068 306.383 327.604 311.309 326.248C312.263 329.026 313.44 331.843 315.112 334.275C318.263 338.861 322.769 341.841 328.255 342.818C335.304 344.073 343.243 342.742 349.018 338.392C353.37 335.114 356.361 330.238 356.976 324.793C357.746 317.98 354.777 312.436 350.603 307.369Z"/>
	<path fill="#CA4B55" d="M418.111 323.997C420.952 326.623 423.631 329.185 425.738 332.467C433.648 344.783 435.881 365.13 436.456 379.649C436.855 389.724 435.909 400.03 436.904 410.053C433.154 415.371 427.952 419.964 423.327 424.544C422.005 417.475 426.087 407.163 426.463 399.619Q426.985 387.135 426.454 374.651Q425.923 362.168 424.342 349.773C424.029 347.291 423.717 344.803 423.019 342.395C421.851 338.361 416.89 327.45 418.111 323.997Z"/>
	<path fill="#CA4B55" d="M384.583 348.352C390.074 353.304 391.299 366.41 391.67 373.484C392.548 390.267 387.364 409.046 375.873 421.637C368.016 430.248 357.443 435.081 345.776 435.462C338.482 435.699 325.267 433.806 319.822 428.59C319.617 428.393 319.422 428.186 319.222 427.984C319.255 427.789 319.301 427.595 319.323 427.398C319.942 421.75 315.314 416.714 312.032 412.655C315.619 413.769 318.903 415.729 322.224 417.451C331.483 422.253 340.637 425.504 351.206 423.619C360.974 421.878 368.359 416.242 373.942 408.213C385.53 391.544 388.102 367.914 384.583 348.352Z"/>
	<path fill="#2C405D" d="M382.463 343.363L384.583 348.352C388.102 367.914 385.53 391.544 373.942 408.213C368.359 416.242 360.974 421.878 351.206 423.619C340.637 425.504 331.483 422.253 322.224 417.451C318.903 415.729 315.619 413.769 312.032 412.655C309.013 411.002 306.179 408.475 303.156 406.683C293.072 400.707 280.895 397.141 269.248 396.05C263.135 395.478 256.609 396.38 250.757 394.277C254.265 392.225 256.201 389.795 258.471 386.529C263.249 385.355 269.367 385.901 274.341 385.764C285.838 385.448 325.227 385.263 333.999 380.904C339.349 378.245 341.239 373.013 343.145 367.775C344.63 368.625 346.117 369.485 347.645 370.256C351.595 372.249 355.984 373.01 360.217 371.455C370.884 367.536 378.006 352.944 382.463 343.363Z"/>
	<defs>
		<linearGradient id="gradient_1" gradientUnits="userSpaceOnUse" x1="449.91205" y1="394.62344" x2="317.53552" y2="267.02231">
			<stop offset="0" stop-color="#B4CAE7"/>
			<stop offset="1" stop-color="#E2E0E7"/>
		</linearGradient>
	</defs>
	<path fill="url(#gradient_1)" d="M332.089 270.866C333.98 273.234 335.921 276.821 339.356 277.009C342.755 277.195 348.193 270.363 351.548 268.585C354.584 271.002 357.973 274.767 362.203 274.265C365.33 273.894 368.198 271.392 370.666 269.589C377.339 272.645 384.374 274.88 391.205 277.56C415.96 287.271 435.398 298.692 451.635 320.283C456.96 327.364 462.447 335.113 465.564 343.436C466.774 346.669 467.441 350.034 468.494 353.308C468.622 351.134 468.663 348.915 468.922 346.754C470.314 362.703 451.277 392.955 441.13 405.055L436.904 410.053C435.909 400.03 436.855 389.724 436.456 379.649C435.881 365.13 433.648 344.783 425.738 332.467C423.631 329.185 420.952 326.623 418.111 323.997C414.446 319.29 403.536 311.862 398.436 307.522C407.294 307.82 415.656 308.25 424.248 310.57L423.471 309.961C413.077 301.958 400.024 294.368 387.475 290.579C361.568 282.756 330.636 287.603 305.804 297.13C299.247 299.646 283.684 308.003 277.986 308.532C277.69 308.56 277.393 308.572 277.097 308.592C278.718 303.463 303.061 286.881 308.859 282.938L312.914 285.575C320.235 281.412 326.013 276.695 332.089 270.866Z"/>
	<path fill="#B8D3E8" d="M468.969 340.87C482.704 332.687 498.018 326.996 513.33 322.623C513.282 325.045 512.945 327.793 513.812 330.093L514.363 330.05C516.415 331.752 524.932 330.158 527.8 329.89C532.227 329.476 536.698 329.11 541.106 328.53C537.434 333.246 532.864 336.985 528.854 341.369C543.234 341.572 557.372 346.639 571.634 348.266C567.728 354.682 560.976 359.833 556.331 365.86C565.349 364.787 575.301 366.285 584.053 368.614Q576.975 372.25 569.652 375.364C577.407 379.976 585.017 384.846 592.805 389.393C585.271 389.4 578.055 390.135 570.622 391.311C573.845 393.235 577.221 395.138 580.163 397.474C586.911 402.832 591.744 408.189 599.316 412.729C592.445 412.093 585.416 411.642 578.648 410.252C591.096 424.652 595.028 431.102 597.775 449.883C591.476 441.851 584.951 436.745 575.206 433.458C580.198 442.451 583.897 451.116 585.337 461.363C580.664 456.831 575.592 454.205 569.621 451.724C576.054 462.832 577.586 473.818 574.276 486.272Q573.131 490.464 571.911 494.635C569.136 485.426 565.482 478.112 560.236 470.093C558.652 487.403 551.787 501.767 543.559 516.809C543.59 506.375 542.678 496.865 538.92 487.021C536.888 497.519 533.267 507.413 528.551 516.993C527.965 510.483 527.431 504.282 525.57 497.982C522.914 512.471 518.267 526.169 509.587 538.27C509.503 528.045 508.83 518.446 504.995 508.834C499.904 523.7 490.384 543.633 478.516 554.168C481.767 544.456 480.831 535.259 479.042 525.314C469.896 543.294 462.029 551.826 446.18 564.238C449.428 555.409 451.515 547.027 452.2 537.623C441.844 549.72 427.086 559.835 412.871 566.984C417.47 560.778 420.656 553.866 423.398 546.668C409.629 556.565 395.576 565.172 379.142 569.872C383.184 564.715 387.451 559.613 391.216 554.255C381.269 559.108 370.033 561.841 359.686 565.809C364.922 560.138 369.891 554.215 374.914 548.356C366.694 550.69 358.268 552.16 350.042 554.451C353.918 550.79 357.885 547.326 361.987 543.923C348.95 545.232 335.384 542.68 323.169 538.007C323.468 536.268 323.626 534.316 324.191 532.654C327.135 521.415 332.381 510.589 338.164 500.539C351.321 481.417 374.078 465.627 392.288 451.192C402.926 442.759 413.5 433.918 423.327 424.544C427.952 419.964 433.154 415.371 436.904 410.053L441.13 405.055C451.277 392.955 470.314 362.703 468.922 346.754L468.969 340.87Z"/>
	<path fill="#F6F9FA" d="M468.969 340.87C482.704 332.687 498.018 326.996 513.33 322.623C513.282 325.045 512.945 327.793 513.812 330.093C522.712 354.69 523.477 371.25 512.082 395.391C507.141 405.859 500.449 415.162 493.532 424.381C455.704 474.8 398.746 507.645 340.152 528.553C335.24 530.306 330.075 532.24 325.004 533.405C324.263 532.869 324.482 533.166 324.191 532.654C327.135 521.415 332.381 510.589 338.164 500.539C351.321 481.417 374.078 465.627 392.288 451.192C402.926 442.759 413.5 433.918 423.327 424.544C427.952 419.964 433.154 415.371 436.904 410.053L441.13 405.055C451.277 392.955 470.314 362.703 468.922 346.754L468.969 340.87Z"/>
	<path fill="#2C405D" d="M795.545 585.07C800.273 585.454 805.108 587.263 809.603 588.724C850.188 601.923 891.878 641.175 919.072 673.171Q931.391 687.935 942.95 703.3C946.02 707.405 948.823 711.75 951.962 715.794C952.698 716.743 953.448 717.577 954.525 718.143C955.01 733.335 955.096 748.502 953.061 763.586C952.57 766.661 952.111 769.744 951.585 772.813L949.837 781.542L948.753 786.71L946.831 794.36Q944.416 803.023 941.147 811.402C938.595 817.986 936.04 824.563 932.844 830.87C931.255 833.959 929.757 837.177 927.96 840.147C926.245 842.98 924.627 846.021 922.691 848.699C919.241 848 915.7 847.601 912.227 847.007C883.461 842.082 865.908 822.431 849.782 799.719L864.714 797.334C859.579 792.582 851.917 782.339 845.564 780.267C842.248 779.185 838.582 779.056 835.136 778.652C807.404 775.396 785.94 753.046 769.515 732.25C769.847 733.1 770.164 733.871 770.598 734.676C779.235 750.65 808.06 787.297 823.52 795.822C828.563 798.603 834.215 799.426 839.655 801.077C848.951 811.584 857.812 822.315 868.251 831.744C876.346 839.056 887.062 846.507 894.364 854.147C886.942 853.552 879.446 853.041 872.105 851.772C840.075 846.237 820.892 828.999 802.675 803.089C808.09 803.1 813.355 802.044 818.647 801.022C812.614 795.987 807.342 789.719 802.079 783.907C796.233 783.116 790.522 782.966 784.787 781.395C759.619 774.5 740.044 752.259 722.157 734.488Q729.994 746.892 738.895 758.556C750.043 773.06 773.584 800.292 791.979 802.707C800.539 815.21 814.865 830.186 826.332 840.206C832.556 845.645 839.35 850.581 845.22 856.397L845.818 856.994Q841.964 857.073 838.115 856.848C795.974 854.762 774.378 835.613 747.538 805.88C756.437 806.319 765.089 806.765 773.988 805.882C764.516 794.247 752.497 787.223 738.391 782.549C730.3 779.867 722.786 777.55 715.556 772.91C705.295 766.325 695.043 756.968 686.557 748.225C682.865 744.422 679.549 740.269 675.718 736.6L675.254 736.162C691.326 761.437 712.689 781.198 733.724 802.131C745.13 813.481 756.251 825.256 767.992 836.25C776.336 844.064 785.152 851.353 793.992 858.593Q785.989 858.666 777.99 858.407C742.508 856.943 723.417 834.851 700.885 810.435C711.581 810.534 722.467 811.333 733.095 812.509C725.475 801.143 713.87 793.447 700.99 789.153C694.419 786.962 687.467 785.29 681.111 782.53C676.317 780.448 671.545 777.07 667.141 774.244C653.712 765.624 641.011 751.257 629.877 739.761C646.514 765.553 668.054 786.592 689.518 808.236C709.345 828.229 725.196 844.684 747.582 862.214C741.902 863.342 735.817 863.266 730.055 862.97C693.824 861.115 674.329 837.989 651.7 812.867C659.523 813.052 667.44 813.951 675.243 814.579C677.766 814.781 680.556 815.366 683.066 815.244C684.135 815.192 683.695 815.357 684.47 814.501C683.714 809.54 671.778 801.428 667.884 798.853C658.786 792.838 646.814 790.664 636.855 786.308C617.333 777.769 604.357 759.446 589.764 744.694C598.951 759.918 610.474 773.951 621.735 787.662C628.094 795.405 634.271 803.325 640.884 810.855C658.9 831.366 679.266 850.939 701.13 867.294Q694.815 867.69 688.491 867.498C658.929 866.366 636.582 850.984 617.181 829.942C610.689 822.901 604.759 815.359 598.262 808.312C607.698 813.773 614.905 817.001 625.764 818.411C628.217 818.73 630.769 819.369 633.236 818.998L633.818 818.036C633.305 811.878 623.723 800.82 619.67 795.847C618.756 795.781 617.834 795.768 616.918 795.729C610.953 795.47 605.236 795.042 599.481 793.324C577.26 786.692 561.434 764.979 546.413 748.597C555.95 764.04 567.536 777.519 578.783 791.702C582.436 796.309 585.728 801.19 589.387 805.79C608.382 829.672 628.864 852.62 652.963 871.489C645.689 871.538 638.51 871.518 631.297 870.406C606.226 866.54 588.841 853.198 571.886 835.399C564.611 827.761 557.892 819.971 551.623 811.488C553.904 812.933 556.19 814.402 558.552 815.712C564.749 819.148 583.557 826.117 590.268 823.616C590.945 823.363 590.976 822.972 591.293 822.384C591.117 818.877 580.057 804.222 577.521 799.566Q574.507 799.602 571.494 799.511C540.673 798.491 520.38 773.685 500.994 752.874C509.908 767.798 521.581 780.904 532.202 794.594C536.442 800.059 540.171 805.898 544.369 811.393C562.062 834.554 581.419 857.48 603.945 876.096C594.199 876.093 583.759 874.803 574.428 872.067C544.492 863.288 521.312 844.425 501.248 821.259C496.451 815.721 491.448 810.018 487.29 803.982C482.679 797.289 478.62 789.928 474.691 782.81L475.244 782.029L475.038 781.883L474.526 782.269L474.531 781.716C477.647 784.378 480.462 789.71 482.982 793.074C490.008 802.454 500.14 812.467 510.197 818.406C516.321 822.024 536.707 829.526 543.287 827.51C544.157 827.243 544.021 827.088 544.414 826.338C543.29 820.858 533.908 808.981 530.403 803.789C527.092 803.559 523.805 803.232 520.559 802.517C507.772 799.699 476.543 783.403 469.295 772.015C468.502 766.523 464.482 757.82 462.705 752.015C452.806 719.671 439.135 682.058 452.273 648.83C461.068 626.583 476.566 611.378 498.86 602.877C516.213 596.259 535.747 597.084 554.062 596.153L609.707 593.498L758.261 586.11C763.939 585.833 792.189 586.78 794.981 585.379C795.173 585.283 795.357 585.173 795.545 585.07Z"/>
	<path fill="#06122A" d="M951.585 772.813C946.756 770.538 907.806 725.406 904.035 718.55C916.967 730.419 929.223 743.056 942.244 754.817C945.703 757.941 949.536 760.545 953.061 763.586C952.57 766.661 952.111 769.744 951.585 772.813Z"/>
	<path fill="#06122A" d="M858.591 723.679C862.776 728.105 866.705 732.763 870.997 737.092C886.66 752.888 905.886 768.264 926.987 775.906C934.308 778.558 942.252 778.843 949.422 781.387C949.561 781.436 949.699 781.49 949.837 781.542L948.753 786.71L946.831 794.36Q944.416 803.023 941.147 811.402C934.323 807.093 923.399 794.655 916.933 788.214C900.161 771.506 883.788 757.087 868.92 738.415C865.193 733.734 861.219 729.089 858.591 723.679Z"/>
	<path fill="#2C405D" d="M934.907 784.802C939.575 785.201 944.139 785.931 948.753 786.71L946.831 794.36C942.695 791.388 938.824 788.052 934.907 784.802Z"/>
	<path fill="#06122A" d="M884.465 796.675C882.275 796.321 880.047 795.98 877.93 795.31C872.096 793.464 866.575 789.935 861.9 786.047C849.733 775.929 822.758 742.705 815.854 728.894C819.739 733.202 823.572 737.59 827.596 741.769C845.653 760.52 864.548 776.518 891.746 777.028C894.699 779.278 897.307 782.154 900.038 784.679C904.305 788.626 908.781 792.373 912.8 796.578Q908.201 795.884 903.553 795.704Q898.906 795.525 894.267 795.863C901.105 802.41 926.645 827.536 932.844 830.87C931.255 833.959 929.757 837.177 927.96 840.147C922.589 835.651 917.649 830.329 912.685 825.388Q898.396 811.207 884.465 796.675Z"/>
</svg>
